# xmcd
#
# Track frame offsets: 
#        150
#        12402
#        25495
#        38015
#        50372
#        61825
#        71497
#        80375
#        91285
#        102587
#        111117
#        124435
#        139597
#        154750
#        172135
#        191282
#        203605
#        218677
#
# Disc length: 3173 seconds
#
# Revision: 1
# Processed by: cddbd v1.5.2PL0 Copyright (c) Steve Scherf et al.
# Submitted via: ExactAudioCopy v0.99pb3
#
DISCID=f50c6312
DTITLE=Various Artist - Traditions In Country Music (Capitol Records 50th Dis
DTITLE=c 8)
DYEAR=1992
DGENRE=Country
TTITLE0=Tex Ritter - You Two-Timed Me One Time Too Often
TTITLE1=Wesley Tuttle - With Tears In My Eyes
TTITLE2=Jimmy Wakely - One Has My Name, The Other Has My Heart
TTITLE3=Hank Thompson - The Wild Side Of Life
TTITLE4=Jean Shepard and Ferlin Husky - A Dear John Letter
TTITLE5=The Louvin Brothers - I Don't Believe You've Met My Baby
TTITLE6=Faron Young - Alone With You
TTITLE7=Ferlin Husky - Gone
TTITLE8=Sonny James - Young Love
TTITLE9=Buck Owens - Love's Gonna Live Here
TTITLE10=Merle Haggard - I'm A Lonesome Fugitive
TTITLE11=Gene Watson - Love In The Hot Afternoon
TTITLE12=Jessi Colter - I'm Not Lisa
TTITLE13=Don Williams - Heartbeat In The Darkness
TTITLE14=Dan Seals - Addicted
TTITLE15=Tanya Tucker - Strong Enough To Bend
TTITLE16=T. Graham Brown - Darlene
TTITLE17=Garth Brooks - Friends In Low Places
EXTD=
EXTT0=Ritter
EXTT1=
EXTT2=Jimmy Wakely
EXTT3=
EXTT4=
EXTT5=Brothers
EXTT6=
EXTT7=
EXTT8=
EXTT9=
EXTT10=
EXTT11=
EXTT12=
EXTT13=
EXTT14=
EXTT15=
EXTT16=
EXTT17=
PLAYORDER=
